<?xml version="1.0" ?><!DOCTYPE svg  PUBLIC '-//W3C//DTD SVG 1.1//EN'  'http://www.w3.org/Graphics/SVG/1.1/DTD/svg11.dtd'><svg enable-background="new 0 0 128 128" id="Слой_1" version="1.1" viewBox="0 0 128 128" xml:space="preserve" xmlns="http://www.w3.org/2000/svg" xmlns:xlink="http://www.w3.org/1999/xlink"><g><path d="M89,124H29c-5.5,0-10-4.5-10-10V14c0-5.5,4.5-10,10-10h70c5.5,0,10,4.5,10,10v90L89,124z" fill="#C7E7DF"/></g><g><g><path d="M24,19c0-5.5,4.5-10,10-10l70-3c1.5,0,2.9,3.3,4.1,3.9C106.5,6.4,103.1,4,99,4H29c-5.5,0-10,4.5-10,10v100    c0,4.1,2.4,7.5,5.9,9.1c-0.6-1.3-3.9-2.6-3.9-4.1L24,19z" fill="#FFFFFF"/></g></g><g><rect fill="#F0EE8A" height="50" width="70" x="29" y="14"/></g><g opacity="0.4"><polygon fill="#FFFFFF" points="29,14 99,14 99,64  "/></g><g><circle cx="79" cy="99" fill="#EAE6EC" r="3"/></g><g><circle cx="89" cy="89" fill="#EAE6EC" r="3"/></g><g><g><path d="M89,125.5H29c-6.3,0-11.5-5.2-11.5-11.5V14c0-6.3,5.2-11.5,11.5-11.5h70c6.3,0,11.5,5.2,11.5,11.5v90    c0,0.4-0.2,0.8-0.4,1.1l-20,20C89.8,125.3,89.4,125.5,89,125.5z M29,5.5c-4.7,0-8.5,3.8-8.5,8.5v100c0,4.7,3.8,8.5,8.5,8.5h59.4    l19.1-19.1V14c0-4.7-3.8-8.5-8.5-8.5H29z" fill="#62355C"/></g></g><g><g><path d="M99,65.5H29c-0.8,0-1.5-0.7-1.5-1.5V14c0-0.8,0.7-1.5,1.5-1.5h70c0.8,0,1.5,0.7,1.5,1.5v50    C100.5,64.8,99.8,65.5,99,65.5z M30.5,62.5h67v-47h-67V62.5z" fill="#62355C"/></g></g><g><g><path d="M49,105.5c-0.8,0-1.5-0.7-1.5-1.5V84c0-0.8,0.7-1.5,1.5-1.5s1.5,0.7,1.5,1.5v20    C50.5,104.8,49.8,105.5,49,105.5z" fill="#62355C"/></g></g><g><g><path d="M59,95.5H39c-0.8,0-1.5-0.7-1.5-1.5s0.7-1.5,1.5-1.5h20c0.8,0,1.5,0.7,1.5,1.5S59.8,95.5,59,95.5z" fill="#62355C"/></g></g><g><g><path d="M79,103.5c-2.5,0-4.5-2-4.5-4.5s2-4.5,4.5-4.5s4.5,2,4.5,4.5S81.5,103.5,79,103.5z M79,97.5    c-0.8,0-1.5,0.7-1.5,1.5s0.7,1.5,1.5,1.5s1.5-0.7,1.5-1.5S79.8,97.5,79,97.5z" fill="#62355C"/></g></g><g><g><path d="M89,93.5c-2.5,0-4.5-2-4.5-4.5s2-4.5,4.5-4.5s4.5,2,4.5,4.5S91.5,93.5,89,93.5z M89,87.5    c-0.8,0-1.5,0.7-1.5,1.5s0.7,1.5,1.5,1.5s1.5-0.7,1.5-1.5S89.8,87.5,89,87.5z" fill="#62355C"/></g></g></svg>